<?xml version="1.0" standalone="no"?>
<!DOCTYPE svg PUBLIC "-//W3C//DTD SVG 20010904//EN"
 "http://www.w3.org/TR/2001/REC-SVG-20010904/DTD/svg10.dtd">
<svg version="1.0" xmlns="http://www.w3.org/2000/svg"
 width="57.000000pt" height="57.000000pt" viewBox="0 0 57.000000 57.000000"
 preserveAspectRatio="xMidYMid meet">
<metadata>
Created by potrace 1.13, written by Peter Selinger 2001-2015
</metadata>
<g transform="translate(0.000000,57.000000) scale(0.100000,-0.100000)"
fill="#FFFFFF" stroke="none">
<path d="M97 506 c-66 -18 -87 -40 -87 -92 0 -34 5 -47 25 -63 26 -19 104 -41
150 -41 23 0 25 4 25 43 l0 43 -70 11 c-127 20 -127 56 -1 76 45 7 71 16 71
24 0 16 -49 16 -113 -1z"/>
<path d="M10 299 c0 -24 4 -49 8 -56 12 -19 75 -42 136 -49 l56 -7 0 47 c0 41
-2 46 -23 46 -39 0 -140 30 -159 47 -17 15 -18 14 -18 -28z"/>
<path d="M10 179 c0 -24 4 -49 8 -56 12 -19 75 -42 136 -49 l56 -7 0 47 c0 41
-2 46 -23 46 -39 0 -140 30 -159 47 -17 15 -18 14 -18 -28z"/>
</g>
</svg>
