<?xml version="1.0" encoding="utf-8"?>
<!-- Generator: Adobe Illustrator 24.0.3, SVG Export Plug-In . SVG Version: 6.00 Build 0)  -->
<svg version="1.1" id="Layer_1" xmlns="http://www.w3.org/2000/svg" xmlns:xlink="http://www.w3.org/1999/xlink" x="0px" y="0px"
	 viewBox="0 0 400 400" style="enable-background:new 0 0 400 400;" xml:space="preserve">
<style type="text/css">
	.st0{fill-rule:evenodd;clip-rule:evenodd;fill:#FFFFFF;}
</style>
<g>
	<path d="M316.71,400H83.18C37.24,400,0,362.76,0,316.82V83.29C0,37.35,37.24,0.12,83.18,0.12h233.53
		c45.94,0,83.18,37.24,83.18,83.18v233.53C399.88,362.76,362.65,400,316.71,400z"/>
	<g>
		<polygon class="st0" points="199.6,202 107.42,315.9 122.8,330.77 158.49,346.29 179.56,350.03 		"/>
		<path class="st0" d="M199.94,372.79c-96.21,0-174.06-78.67-172.71-175.19c1.28-91.73,78.52-168.97,170.25-170.25
			C294,26,372.67,103.85,372.67,200.06C372.67,295.45,295.33,372.79,199.94,372.79L199.94,372.79z M200.13,55
			c-90.95,0-162.5,83.12-142.82,177.54c11.51,55.22,56.16,99.87,111.38,111.38c94.42,19.68,177.54-51.86,177.54-142.82
			C346.23,120.4,280.82,55,200.13,55L200.13,55z M199.98,302.64c-63.93,0-114.07-59.03-98.89-125.56
			c8.38-36.73,38.22-66.56,74.94-74.94c66.53-15.19,125.56,34.96,125.56,98.89C301.6,257.14,256.11,302.64,199.98,302.64
			L199.98,302.64z M199.81,110.29c-36.42,0-67.87,21.3-82.57,52.12c0.37-0.07,0.76-0.11,1.15-0.11c3.48,0,6.3,2.82,6.3,6.3
			s-2.82,6.31-6.3,6.31c-2.13,0-4.01-1.06-5.15-2.68c-5.42,15.92-6.58,33.82-2.09,52.28c8.11,33.38,36.01,59.95,69.69,66.71
			c16.11,3.24,31.68,2.23,45.78-2.09c-1.6-1.14-2.64-3.01-2.64-5.13c0-3.48,2.82-6.31,6.3-6.31s6.31,2.82,6.31,6.31
			c0,0.52-0.07,1.02-0.19,1.5c32.27-14.12,54.81-46.32,54.81-83.79C291.23,151.22,250.3,110.29,199.81,110.29L199.81,110.29z
			 M259.77,218.16c-2.14,0-4.03-1.07-5.17-2.7c-6.25,24.3-28.3,42.26-54.55,42.26c-31.11,0-56.32-25.22-56.32-56.32
			c0-31.11,25.22-56.32,56.32-56.32c31.11,0,56.32,25.22,56.32,56.32c0,1.8-0.09,3.58-0.25,5.34c1.03-0.73,2.29-1.17,3.65-1.17
			c3.48,0,6.31,2.82,6.31,6.3C266.07,215.33,263.25,218.16,259.77,218.16L259.77,218.16z M199.57,155.18
			c-25.67,0-46.49,20.81-46.49,46.49s20.81,46.49,46.49,46.49s46.49-20.81,46.49-46.49C246.06,175.98,225.24,155.18,199.57,155.18
			L199.57,155.18z M200.23,207.3c-3.48,0-6.3-2.82-6.3-6.31c0-3.48,2.82-6.3,6.3-6.3s6.31,2.82,6.31,6.3
			C206.54,204.48,203.71,207.3,200.23,207.3L200.23,207.3z M136.43,172.4c-3.48,0-6.31-2.82-6.31-6.3s2.82-6.3,6.31-6.3
			c3.48,0,6.3,2.82,6.3,6.3C142.74,169.57,139.91,172.4,136.43,172.4L136.43,172.4z M252.02,90.94c-3.48,0-6.3-2.82-6.3-6.31
			c0-3.48,2.82-6.3,6.3-6.3s6.31,2.82,6.31,6.3C258.32,88.12,255.5,90.94,252.02,90.94L252.02,90.94z M108.51,287.78
			c3.48,0,6.31,2.82,6.31,6.3c0,3.48-2.82,6.31-6.31,6.31c-3.48,0-6.3-2.82-6.3-6.31C102.2,290.6,105.02,287.78,108.51,287.78
			L108.51,287.78z"/>
		<path class="st0" d="M199.94,18.61c-100.21,0-181.45,81.24-181.45,181.45s81.24,181.45,181.45,181.45s181.45-81.24,181.45-181.45
			S300.15,18.61,199.94,18.61z M237.31,359.22c-119.14,26.4-222.93-77.39-196.53-196.53C54.09,102.65,102.54,54.21,162.57,40.9
			C281.71,14.5,385.5,118.29,359.1,237.43C345.79,297.46,297.35,345.91,237.31,359.22z"/>
	</g>
</g>
</svg>
