<?xml version="1.0" encoding="UTF-8" standalone="no"?>
<!-- Created with Inkscape (http://www.inkscape.org/) -->

<svg
   width="1620"
   height="280"
   viewBox="0 0 1620 280"
   id="svg2"
   version="1.1"
   inkscape:version="1.2.1 (9c6d41e4, 2022-07-14)"
   sodipodi:docname="logo-dexie-cloud.svg"
   xmlns:inkscape="http://www.inkscape.org/namespaces/inkscape"
   xmlns:sodipodi="http://sodipodi.sourceforge.net/DTD/sodipodi-0.dtd"
   xmlns="http://www.w3.org/2000/svg"
   xmlns:svg="http://www.w3.org/2000/svg"
   xmlns:rdf="http://www.w3.org/1999/02/22-rdf-syntax-ns#"
   xmlns:cc="http://creativecommons.org/ns#"
   xmlns:dc="http://purl.org/dc/elements/1.1/">
  <title
     id="title3455">Dexie Cloud Logo</title>
  <defs
     id="defs4" />
  <sodipodi:namedview
     id="base"
     pagecolor="#ffffff"
     bordercolor="#666666"
     borderopacity="1.0"
     inkscape:pageopacity="0.0"
     inkscape:pageshadow="2"
     inkscape:zoom="0.5"
     inkscape:cx="615"
     inkscape:cy="557"
     inkscape:document-units="px"
     inkscape:current-layer="layer1"
     showgrid="false"
     units="px"
     inkscape:window-width="1920"
     inkscape:window-height="1147"
     inkscape:window-x="1440"
     inkscape:window-y="25"
     inkscape:window-maximized="1"
     inkscape:showpageshadow="2"
     inkscape:pagecheckerboard="0"
     inkscape:deskcolor="#d1d1d1" />
  <metadata
     id="metadata7">
    <rdf:RDF>
      <cc:Work
         rdf:about="">
        <dc:format>image/svg+xml</dc:format>
        <dc:type
           rdf:resource="http://purl.org/dc/dcmitype/StillImage" />
        <dc:title>Dexie Cloud Logo</dc:title>
        <dc:date>22. Nov 2022</dc:date>
        <dc:creator>
          <cc:Agent>
            <dc:title>Carlos Pinto, David Fahlander</dc:title>
          </cc:Agent>
        </dc:creator>
        <dc:rights>
          <cc:Agent>
            <dc:title>Dexie Cloud Logo</dc:title>
          </cc:Agent>
        </dc:rights>
        <dc:publisher>
          <cc:Agent>
            <dc:title>Carlos Pinto, David Fahlander</dc:title>
          </cc:Agent>
        </dc:publisher>
        <dc:identifier>Dexie Cloud Logo</dc:identifier>
        <dc:source />
        <dc:language>English</dc:language>
        <dc:subject>
          <rdf:Bag>
            <rdf:li>dexie</rdf:li>
            <rdf:li>sync</rdf:li>
            <rdf:li>database</rdf:li>
            <rdf:li>javascript</rdf:li>
            <rdf:li>indexedDB</rdf:li>
            <rdf:li>postgresql</rdf:li>
          </rdf:Bag>
        </dc:subject>
        <dc:description>The logo version of the Dexie Cloud project.</dc:description>
      </cc:Work>
    </rdf:RDF>
  </metadata>
  <g
     inkscape:label="Layer 1"
     inkscape:groupmode="layer"
     id="layer1"
     transform="translate(0,27.637839)">
    <g
       id="g3441"
       transform="matrix(0.59691468,0,0,0.52054054,12.63837,-117.08542)">
      <g
         id="g3340"
         transform="matrix(0.69493665,0,0,-0.69493665,103.79892,634.68441)"
         style="fill:#f0f0f0;stroke:none">
        <path
           style="fill:#f0f0f0"
           id="path3342"
           d="M 97,506 C 31,488 10,466 10,414 c 0,-34 5,-47 25,-63 26,-19 104,-41 150,-41 23,0 25,4 25,43 v 43 l -70,11 c -127,20 -127,56 -1,76 45,7 71,16 71,24 0,16 -49,16 -113,-1 z"
           inkscape:connector-curvature="0" />
        <path
           style="fill:#f0f0f0"
           id="path3344"
           d="m 10,299 c 0,-24 4,-49 8,-56 12,-19 75,-42 136,-49 l 56,-7 v 47 c 0,41 -2,46 -23,46 -39,0 -140,30 -159,47 -17,15 -18,14 -18,-28 z"
           inkscape:connector-curvature="0" />
        <path
           style="fill:#f0f0f0"
           id="path3346"
           d="m 10,179 c 0,-24 4,-49 8,-56 12,-19 75,-42 136,-49 l 56,-7 v 47 c 0,41 -2,46 -23,46 -39,0 -140,30 -159,47 -17,15 -18,14 -18,-28 z"
           inkscape:connector-curvature="0" />
      </g>
    <text
       xml:space="preserve"
       style="font-style:normal;font-variant:normal;font-weight:normal;font-stretch:normal;font-size:436px;font-family:arial;-inkscape-font-specification:arial;font-variant-ligatures:normal;font-variant-caps:normal;font-variant-numeric:normal;font-variant-east-asian:normal;fill:#f0f0f0;fill-opacity:1;stroke-width:0.528935"
       x="245"
       y="598"
       id="text502"
       ><tspan
         id="tspan500"
         x="245"
         y="598"
         sodipodi:role="line"
         style="stroke-width:0.528935">Dexie Cloud</tspan></text>

    </g>
  </g>
</svg>
